<?xml version="1.0" encoding="UTF-8"?>
<svg width="14px" height="20px" viewBox="0 0 14 20" version="1.1" xmlns="http://www.w3.org/2000/svg" xmlns:xlink="http://www.w3.org/1999/xlink">
    <title>Icon_Stroke/20_Location</title>
    <defs>
        <path d="M10.6462,7.1136 C10.3542,7.6196 9.8692,7.6746 9.6742,7.6746 C9.4792,7.6746 8.9952,7.6196 8.7022,7.1136 C8.4102,6.6076 8.6042,6.1596 8.7022,5.9906 C8.7992,5.8226 9.0892,5.4296 9.6742,5.4296 C10.2592,5.4296 10.5492,5.8226 10.6462,5.9906 C10.7442,6.1596 10.9382,6.6076 10.6462,7.1136 M9.6742,4.2236 C7.8812,4.2236 6.7612,6.1646 7.6582,7.7166 C8.1052,8.4926 8.8902,8.8816 9.6742,8.8816 C10.4592,8.8816 11.2432,8.4926 11.6902,7.7166 C12.5872,6.1646 11.4672,4.2236 9.6742,4.2236 M14.4011,9.3934 L9.6741,17.5804 L4.9471,9.3934 C3.9611,7.6844 3.9611,5.6434 4.9471,3.9354 C5.9341,2.2264 7.7011,1.2054 9.6741,1.2054 C11.6481,1.2054 13.4151,2.2264 14.4011,3.9354 C15.3881,5.6434 15.3881,7.6844 14.4011,9.3934 M9.6741,-0.0006 C4.5441,-0.0006 1.3381,5.5534 3.9031,9.9964 L9.6741,19.9934 L15.4451,9.9964 C18.0111,5.5534 14.8041,-0.0006 9.6741,-0.0006" id="path-1"></path>
    </defs>
    <g id="Page-1" stroke="none" stroke-width="1" fill="none" fill-rule="evenodd">
        <g id="01-Home-(TEST)" transform="translate(-134.000000, -423.000000)">
            <g id="Group" transform="translate(131.000000, 423.000000)">
                <mask id="mask-2" fill="white">
                    <use xlink:href="#path-1"></use>
                </mask>
                <use id="Mask" fill="#FFFFFF" xlink:href="#path-1"></use>
            </g>
        </g>
    </g>
</svg>